# Blender v2.93.1 OBJ File: ''
# www.blender.org
mtllib F_BookNewOrange.mtl
o F_BookNewOrange
v -1.200000 0.100000 0.500000
v -1.200000 -0.000000 0.500000
v -1.200000 -0.000000 0.600000
v -1.200000 0.000000 -0.700000
v -1.200000 0.100000 -0.600000
v -1.200000 0.100000 -0.700000
v -1.200000 0.200000 0.500000
v -1.200000 0.200000 -0.600000
v -1.200000 0.300000 0.700000
v -1.200000 -0.000000 0.700000
v -1.200000 0.300000 0.600000
v -1.200000 0.300000 0.500000
v -1.200000 0.200000 -0.700000
v -1.200000 0.300000 -0.700000
v 0.700000 -0.000000 0.600000
v 0.700000 -0.000000 0.500000
v 0.700000 0.100000 0.500000
v 0.700000 0.000000 -0.700000
v 0.700000 0.100000 -0.600000
v 0.700000 0.100000 -0.700000
v 0.700000 0.200000 0.500000
v 0.700000 0.200000 -0.600000
v 0.700000 -0.000000 0.700000
v 0.700000 0.300000 0.700000
v 0.700000 0.300000 0.600000
v 0.700000 0.200000 -0.700000
v 0.700000 0.300000 0.500000
v 0.700000 0.300000 -0.700000
v 0.700000 -0.000000 0.700000
v -1.200000 0.300000 0.700000
v -1.200000 -0.000000 0.700000
v 0.700000 0.300000 0.700000
v -1.200000 0.100000 -0.600000
v -1.200000 0.200000 -0.600000
v 0.700000 0.100000 -0.600000
v 0.700000 0.200000 -0.600000
v -1.200000 0.000000 -0.700000
v -1.200000 0.100000 -0.700000
v 0.700000 0.000000 -0.700000
v 0.700000 0.100000 -0.700000
v -1.200000 0.200000 -0.700000
v -1.200000 0.300000 -0.700000
v 0.700000 0.200000 -0.700000
v 0.700000 0.300000 -0.700000
v -1.200000 -0.000000 0.600000
v 0.700000 -0.000000 0.700000
v -1.200000 -0.000000 0.700000
v 0.700000 -0.000000 0.600000
v -1.200000 -0.000000 0.500000
v 0.700000 -0.000000 0.500000
v -0.600000 -0.000000 0.400000
v -0.500000 -0.000000 0.400000
v -0.400000 -0.000000 0.400000
v -0.300000 -0.000000 0.400000
v -0.200000 -0.000000 0.400000
v -0.100000 -0.000000 0.400000
v 0.000000 -0.000000 0.400000
v 0.100000 -0.000000 0.400000
v 0.200000 -0.000000 0.400000
v 0.300000 -0.000000 0.400000
v 0.400000 -0.000000 0.400000
v 0.500000 -0.000000 0.400000
v -1.000000 -0.000000 0.300000
v -0.900000 -0.000000 0.300000
v -0.800000 -0.000000 0.300000
v -0.700000 -0.000000 0.300000
v -0.400000 -0.000000 0.300000
v -0.300000 -0.000000 0.300000
v -0.200000 -0.000000 0.300000
v -0.100000 -0.000000 0.300000
v -0.400000 -0.000000 0.200000
v -0.300000 -0.000000 0.200000
v -0.200000 -0.000000 0.200000
v -0.100000 -0.000000 0.200000
v -0.800000 -0.000000 0.100000
v -0.700000 -0.000000 0.100000
v -0.200000 -0.000000 0.100000
v -0.100000 -0.000000 0.100000
v -0.800000 0.000000 0.000000
v -0.700000 0.000000 0.000000
v -0.200000 0.000000 0.000000
v -0.100000 0.000000 0.000000
v 0.400000 0.000000 0.000000
v 0.500000 0.000000 0.000000
v -0.600000 0.000000 -0.100000
v -0.500000 0.000000 -0.100000
v 0.000000 0.000000 -0.100000
v 0.100000 0.000000 -0.100000
v 0.200000 0.000000 -0.100000
v 0.300000 0.000000 -0.100000
v 0.400000 0.000000 -0.100000
v 0.500000 0.000000 -0.100000
v -0.600000 0.000000 -0.200000
v -0.500000 0.000000 -0.200000
v -0.400000 0.000000 -0.200000
v -0.300000 0.000000 -0.200000
v 0.000000 0.000000 -0.200000
v 0.100000 0.000000 -0.200000
v 0.200000 0.000000 -0.200000
v 0.300000 0.000000 -0.200000
v 0.400000 0.000000 -0.200000
v 0.500000 0.000000 -0.200000
v -0.400000 0.000000 -0.300000
v -0.300000 0.000000 -0.300000
v 0.200000 0.000000 -0.300000
v 0.300000 0.000000 -0.300000
v 0.400000 0.000000 -0.300000
v 0.500000 0.000000 -0.300000
v 0.200000 0.000000 -0.400000
v 0.300000 0.000000 -0.400000
v -1.000000 0.000000 -0.500000
v -0.900000 0.000000 -0.500000
v -0.800000 0.000000 -0.500000
v -0.700000 0.000000 -0.500000
v -0.600000 0.000000 -0.500000
v -0.500000 0.000000 -0.500000
v -0.400000 0.000000 -0.500000
v -0.300000 0.000000 -0.500000
v -0.200000 0.000000 -0.500000
v -0.100000 0.000000 -0.500000
v 0.000000 0.000000 -0.500000
v 0.100000 0.000000 -0.500000
v 0.200000 0.000000 -0.500000
v 0.300000 0.000000 -0.500000
v 0.400000 0.000000 -0.500000
v 0.500000 0.000000 -0.500000
v -1.200000 0.000000 -0.700000
v 0.700000 0.000000 -0.700000
v -1.200000 0.200000 -0.700000
v 0.700000 0.200000 -0.600000
v -1.200000 0.200000 -0.600000
v 0.700000 0.200000 -0.700000
v -1.200000 0.100000 -0.600000
v 0.700000 0.100000 -0.600000
v -1.200000 0.100000 -0.700000
v 0.700000 0.100000 -0.700000
v -1.200000 0.300000 0.700000
v 0.700000 0.300000 0.700000
v -1.200000 0.300000 0.600000
v 0.700000 0.300000 0.600000
v -1.200000 0.300000 0.500000
v 0.700000 0.300000 0.500000
v -1.000000 0.300000 0.300000
v -0.100000 0.300000 0.300000
v 0.400000 0.300000 0.200000
v 0.500000 0.300000 0.200000
v 0.400000 0.300000 -0.400000
v 0.500000 0.300000 -0.400000
v -1.000000 0.300000 -0.500000
v -0.100000 0.300000 -0.500000
v -1.200000 0.300000 -0.700000
v 0.700000 0.300000 -0.700000
vt 0.091797 0.500000
vt 0.091797 0.500000
vt 0.091797 0.500000
vt 0.064453 0.500000
vt 0.064453 0.500000
vt 0.064453 0.500000
vt 0.064453 0.500000
vt 0.064453 0.500000
vt 0.091797 0.500000
vt 0.958984 0.500000
vt 0.958984 0.500000
vt 0.958984 0.500000
vt 0.958984 0.500000
vt 0.064453 0.500000
vt 0.064453 0.500000
vt 0.064453 0.500000
vt 0.091797 0.500000
vt 0.064453 0.500000
vt 0.064453 0.500000
vt 0.064453 0.500000
vt 0.064453 0.500000
vt 0.091797 0.500000
vt 0.064453 0.500000
vt 0.064453 0.500000
vt 0.091797 0.500000
vt 0.091797 0.500000
vt 0.091797 0.500000
vt 0.064453 0.500000
vt 0.064453 0.500000
vt 0.064453 0.500000
vt 0.064453 0.500000
vt 0.064453 0.500000
vt 0.091797 0.500000
vt 0.958984 0.500000
vt 0.958984 0.500000
vt 0.958984 0.500000
vt 0.958984 0.500000
vt 0.064453 0.500000
vt 0.064453 0.500000
vt 0.064453 0.500000
vt 0.091797 0.500000
vt 0.064453 0.500000
vt 0.064453 0.500000
vt 0.064453 0.500000
vt 0.064453 0.500000
vt 0.091797 0.500000
vt 0.064453 0.500000
vt 0.064453 0.500000
vt 0.064453 0.500000
vt 0.064453 0.500000
vt 0.064453 0.500000
vt 0.064453 0.500000
vt 0.958984 0.500000
vt 0.958984 0.500000
vt 0.958984 0.500000
vt 0.958984 0.500000
vt 0.064453 0.500000
vt 0.064453 0.500000
vt 0.064453 0.500000
vt 0.064453 0.500000
vt 0.064453 0.500000
vt 0.064453 0.500000
vt 0.064453 0.500000
vt 0.064453 0.500000
vt 0.064453 0.500000
vt 0.064453 0.500000
vt 0.064453 0.500000
vt 0.064453 0.500000
vt 0.091797 0.500000
vt 0.091797 0.500000
vt 0.091797 0.500000
vt 0.091797 0.500000
vt 0.064453 0.500000
vt 0.064453 0.500000
vt 0.064453 0.500000
vt 0.064453 0.500000
vt 0.064453 0.500000
vt 0.064453 0.500000
vt 0.064453 0.500000
vt 0.064453 0.500000
vt 0.064453 0.500000
vt 0.064453 0.500000
vt 0.064453 0.500000
vt 0.064453 0.500000
vt 0.064453 0.500000
vt 0.064453 0.500000
vt 0.064453 0.500000
vt 0.064453 0.500000
vt 0.064453 0.500000
vt 0.064453 0.500000
vt 0.064453 0.500000
vt 0.091797 0.500000
vt 0.091797 0.500000
vt 0.091797 0.500000
vt 0.064453 0.500000
vt 0.091797 0.500000
vt 0.091797 0.500000
vt 0.091797 0.500000
vt 0.091797 0.500000
vt 0.064453 0.500000
vt 0.064453 0.500000
vt 0.091797 0.500000
vt 0.064453 0.500000
vt 0.064453 0.500000
vt 0.064453 0.500000
vt 0.064453 0.500000
vt 0.091797 0.500000
vt 0.091797 0.500000
vt 0.091797 0.500000
vt 0.064453 0.500000
vt 0.064453 0.500000
vt 0.091797 0.500000
vt 0.064453 0.500000
vt 0.091797 0.500000
vt 0.091797 0.500000
vt 0.091797 0.500000
vt 0.064453 0.500000
vt 0.091797 0.500000
vt 0.064453 0.500000
vt 0.064453 0.500000
vt 0.064453 0.500000
vt 0.064453 0.500000
vt 0.064453 0.500000
vt 0.091797 0.500000
vt 0.091797 0.500000
vt 0.091797 0.500000
vt 0.064453 0.500000
vt 0.091797 0.500000
vt 0.091797 0.500000
vt 0.091797 0.500000
vt 0.091797 0.500000
vt 0.064453 0.500000
vt 0.064453 0.500000
vt 0.091797 0.500000
vt 0.091797 0.500000
vt 0.091797 0.500000
vt 0.091797 0.500000
vt 0.064453 0.500000
vt 0.064453 0.500000
vt 0.091797 0.500000
vt 0.091797 0.500000
vt 0.091797 0.500000
vt 0.091797 0.500000
vt 0.064453 0.500000
vt 0.064453 0.500000
vt 0.091797 0.500000
vt 0.064453 0.500000
vt 0.064453 0.500000
vt 0.064453 0.500000
vt 0.064453 0.500000
vt 0.091797 0.500000
vt 0.091797 0.500000
vt 0.091797 0.500000
vt 0.064453 0.500000
vt 0.064453 0.500000
vt 0.091797 0.500000
vt 0.064453 0.500000
vt 0.064453 0.500000
vt 0.064453 0.500000
vt 0.064453 0.500000
vt 0.091797 0.500000
vt 0.091797 0.500000
vt 0.091797 0.500000
vt 0.064453 0.500000
vt 0.064453 0.500000
vt 0.091797 0.500000
vt 0.064453 0.500000
vt 0.064453 0.500000
vt 0.091797 0.500000
vt 0.091797 0.500000
vt 0.091797 0.500000
vt 0.064453 0.500000
vt 0.064453 0.500000
vt 0.091797 0.500000
vt 0.064453 0.500000
vt 0.064453 0.500000
vt 0.064453 0.500000
vt 0.064453 0.500000
vt 0.091797 0.500000
vt 0.091797 0.500000
vt 0.091797 0.500000
vt 0.064453 0.500000
vt 0.064453 0.500000
vt 0.091797 0.500000
vt 0.091797 0.500000
vt 0.091797 0.500000
vt 0.091797 0.500000
vt 0.064453 0.500000
vt 0.064453 0.500000
vt 0.091797 0.500000
vt 0.091797 0.500000
vt 0.091797 0.500000
vt 0.091797 0.500000
vt 0.064453 0.500000
vt 0.064453 0.500000
vt 0.091797 0.500000
vt 0.091797 0.500000
vt 0.091797 0.500000
vt 0.091797 0.500000
vt 0.064453 0.500000
vt 0.064453 0.500000
vt 0.091797 0.500000
vt 0.091797 0.500000
vt 0.091797 0.500000
vt 0.091797 0.500000
vt 0.064453 0.500000
vt 0.064453 0.500000
vt 0.091797 0.500000
vt 0.091797 0.500000
vt 0.091797 0.500000
vt 0.091797 0.500000
vt 0.064453 0.500000
vt 0.064453 0.500000
vt 0.091797 0.500000
vt 0.091797 0.500000
vt 0.091797 0.500000
vt 0.091797 0.500000
vt 0.064453 0.500000
vt 0.064453 0.500000
vt 0.091797 0.500000
vt 0.091797 0.500000
vt 0.091797 0.500000
vt 0.091797 0.500000
vt 0.064453 0.500000
vt 0.064453 0.500000
vt 0.091797 0.500000
vt 0.064453 0.500000
vt 0.064453 0.500000
vt 0.064453 0.500000
vt 0.064453 0.500000
vt 0.064453 0.500000
vt 0.064453 0.500000
vt 0.064453 0.500000
vt 0.064453 0.500000
vt 0.064453 0.500000
vt 0.064453 0.500000
vt 0.064453 0.500000
vt 0.064453 0.500000
vt 0.064453 0.500000
vt 0.064453 0.500000
vt 0.091797 0.500000
vt 0.091797 0.500000
vt 0.091797 0.500000
vt 0.091797 0.500000
vt 0.064453 0.500000
vt 0.064453 0.500000
vt 0.064453 0.500000
vt 0.064453 0.500000
vt 0.064453 0.500000
vt 0.064453 0.500000
vt 0.064453 0.500000
vt 0.091797 0.500000
vt 0.091797 0.500000
vt 0.091797 0.500000
vt 0.064453 0.500000
vt 0.091797 0.500000
vt 0.064453 0.500000
vt 0.091797 0.500000
vt 0.091797 0.500000
vt 0.091797 0.500000
vt 0.064453 0.500000
vt 0.091797 0.500000
vt 0.064453 0.500000
vt 0.064453 0.500000
vn -1.0000 0.0000 0.0000
vn 1.0000 0.0000 0.0000
vn 0.0000 0.0000 1.0000
vn 0.0000 0.0000 -1.0000
vn 0.0000 -1.0000 -0.0000
vn 0.0000 1.0000 0.0000
usemtl palette.003
s 1
f 1/1/1 2/2/1 3/3/1
f 1/4/1 4/5/1 2/6/1
f 5/7/1 4/5/1 1/4/1
f 6/8/1 4/5/1 5/7/1
f 7/9/1 1/1/1 3/3/1
f 7/10/1 5/11/1 1/12/1
f 8/13/1 5/11/1 7/10/1
f 9/14/1 3/15/1 10/16/1
f 11/17/1 7/9/1 3/3/1
f 11/18/1 3/15/1 9/14/1
f 12/19/1 13/20/1 8/21/1
f 12/22/1 7/9/1 11/17/1
f 12/19/1 8/21/1 7/23/1
f 14/24/1 13/20/1 12/19/1
f 15/25/2 16/26/2 17/27/2
f 16/28/2 18/29/2 17/30/2
f 17/30/2 18/29/2 19/31/2
f 19/31/2 18/29/2 20/32/2
f 15/25/2 17/27/2 21/33/2
f 17/34/2 19/35/2 21/36/2
f 21/36/2 19/35/2 22/37/2
f 23/38/2 15/39/2 24/40/2
f 15/25/2 21/33/2 25/41/2
f 24/40/2 15/39/2 25/42/2
f 22/43/2 26/44/2 27/45/2
f 25/41/2 21/33/2 27/46/2
f 21/47/2 22/43/2 27/45/2
f 27/45/2 26/44/2 28/48/2
f 29/49/3 30/50/3 31/51/3
f 32/52/3 30/50/3 29/49/3
f 33/53/4 34/54/4 35/55/4
f 35/55/4 34/54/4 36/56/4
f 37/57/4 38/58/4 39/59/4
f 39/59/4 38/58/4 40/60/4
f 41/61/4 42/62/4 43/63/4
f 43/63/4 42/62/4 44/64/4
f 45/65/5 46/66/5 47/67/5
f 48/68/5 46/66/5 45/65/5
f 49/69/5 48/70/5 45/71/5
f 50/72/5 48/70/5 49/69/5
f 51/73/5 50/74/5 49/75/5
f 52/76/5 50/74/5 51/73/5
f 53/77/5 50/74/5 52/76/5
f 54/78/5 50/74/5 53/77/5
f 55/79/5 50/74/5 54/78/5
f 56/80/5 50/74/5 55/79/5
f 57/81/5 50/74/5 56/80/5
f 58/82/5 50/74/5 57/81/5
f 59/83/5 50/74/5 58/82/5
f 60/84/5 50/74/5 59/83/5
f 61/85/5 50/74/5 60/84/5
f 62/86/5 50/74/5 61/85/5
f 63/87/5 51/73/5 49/75/5
f 64/88/5 51/73/5 63/87/5
f 65/89/5 51/73/5 64/88/5
f 66/90/5 51/73/5 65/89/5
f 67/91/5 53/77/5 52/76/5
f 67/92/5 54/93/5 53/94/5
f 68/95/5 55/79/5 54/78/5
f 68/96/5 54/93/5 67/92/5
f 69/97/5 56/98/5 55/99/5
f 69/100/5 55/79/5 68/95/5
f 70/101/5 57/81/5 56/80/5
f 70/102/5 56/98/5 69/97/5
f 71/103/5 67/91/5 52/76/5
f 71/103/5 68/95/5 67/91/5
f 71/103/5 70/101/5 69/100/5
f 71/103/5 69/100/5 68/95/5
f 72/104/5 70/101/5 71/103/5
f 73/105/5 70/101/5 72/104/5
f 74/106/5 57/81/5 70/101/5
f 74/106/5 70/101/5 73/105/5
f 75/107/5 66/108/5 65/109/5
f 75/110/5 65/89/5 64/88/5
f 76/111/5 51/73/5 66/90/5
f 76/112/5 66/108/5 75/107/5
f 77/113/5 73/105/5 72/104/5
f 77/114/5 74/115/5 73/116/5
f 78/117/5 57/81/5 74/106/5
f 78/118/5 74/115/5 77/114/5
f 79/119/5 75/110/5 64/88/5
f 79/119/5 76/111/5 75/110/5
f 80/120/5 51/73/5 76/111/5
f 80/120/5 76/111/5 79/119/5
f 81/121/5 77/113/5 72/104/5
f 81/121/5 78/117/5 77/113/5
f 82/122/5 57/81/5 78/117/5
f 82/122/5 78/117/5 81/121/5
f 83/123/5 61/85/5 60/84/5
f 83/124/5 62/125/5 61/126/5
f 84/127/5 50/74/5 62/86/5
f 84/128/5 62/125/5 83/124/5
f 85/129/5 52/130/5 51/131/5
f 85/132/5 51/73/5 80/120/5
f 86/133/5 71/103/5 52/76/5
f 86/134/5 52/130/5 85/129/5
f 87/135/5 58/136/5 57/137/5
f 87/138/5 57/81/5 82/122/5
f 88/139/5 59/83/5 58/82/5
f 88/140/5 58/136/5 87/135/5
f 89/141/5 60/142/5 59/143/5
f 89/144/5 59/83/5 88/139/5
f 90/145/5 83/123/5 60/84/5
f 90/146/5 60/142/5 89/141/5
f 90/145/5 84/127/5 83/123/5
f 91/147/5 84/127/5 90/145/5
f 92/148/5 50/74/5 84/127/5
f 92/148/5 84/127/5 91/147/5
f 93/149/5 86/133/5 85/132/5
f 93/149/5 85/132/5 80/120/5
f 94/150/5 71/103/5 86/133/5
f 94/150/5 86/133/5 93/149/5
f 95/151/5 72/152/5 71/153/5
f 95/154/5 71/103/5 94/150/5
f 96/155/5 81/121/5 72/104/5
f 96/156/5 72/152/5 95/151/5
f 97/157/5 89/144/5 88/139/5
f 97/157/5 91/147/5 90/145/5
f 97/157/5 87/138/5 82/122/5
f 97/157/5 90/145/5 89/144/5
f 97/157/5 88/139/5 87/138/5
f 98/158/5 91/147/5 97/157/5
f 99/159/5 91/147/5 98/158/5
f 100/160/5 91/147/5 99/159/5
f 101/161/5 92/162/5 91/163/5
f 101/164/5 91/147/5 100/160/5
f 102/165/5 50/74/5 92/148/5
f 102/166/5 92/162/5 101/161/5
f 103/167/5 96/155/5 95/154/5
f 103/167/5 95/154/5 94/150/5
f 104/168/5 81/121/5 96/155/5
f 104/168/5 96/155/5 103/167/5
f 105/169/5 100/170/5 99/171/5
f 105/172/5 99/159/5 98/158/5
f 106/173/5 102/165/5 101/164/5
f 106/174/5 100/170/5 105/169/5
f 106/173/5 101/164/5 100/160/5
f 107/175/5 102/165/5 106/173/5
f 108/176/5 50/74/5 102/165/5
f 108/176/5 102/165/5 107/175/5
f 109/177/5 107/175/5 106/173/5
f 109/177/5 105/172/5 98/158/5
f 109/177/5 106/173/5 105/172/5
f 110/178/5 107/175/5 109/177/5
f 111/179/5 64/180/5 63/181/5
f 111/182/5 63/87/5 49/75/5
f 112/183/5 79/119/5 64/88/5
f 112/184/5 64/180/5 111/179/5
f 113/185/5 80/186/5 79/187/5
f 113/188/5 79/119/5 112/183/5
f 114/189/5 93/149/5 80/120/5
f 114/190/5 80/186/5 113/185/5
f 115/191/5 94/192/5 93/193/5
f 115/194/5 93/149/5 114/189/5
f 116/195/5 103/167/5 94/150/5
f 116/196/5 94/192/5 115/191/5
f 117/197/5 104/198/5 103/199/5
f 117/200/5 103/167/5 116/195/5
f 118/201/5 81/121/5 104/168/5
f 118/202/5 104/198/5 117/197/5
f 119/203/5 82/204/5 81/205/5
f 119/206/5 81/121/5 118/201/5
f 120/207/5 97/157/5 82/122/5
f 120/208/5 82/204/5 119/203/5
f 121/209/5 98/210/5 97/211/5
f 121/212/5 97/157/5 120/207/5
f 122/213/5 109/177/5 98/158/5
f 122/214/5 98/210/5 121/209/5
f 123/215/5 110/216/5 109/217/5
f 123/218/5 109/177/5 122/213/5
f 124/219/5 107/175/5 110/178/5
f 124/220/5 110/216/5 123/215/5
f 125/221/5 108/222/5 107/223/5
f 125/224/5 107/175/5 124/219/5
f 126/225/5 50/74/5 108/176/5
f 126/226/5 108/222/5 125/221/5
f 127/227/5 115/194/5 114/189/5
f 127/227/5 125/224/5 124/219/5
f 127/227/5 126/225/5 125/224/5
f 127/227/5 121/212/5 120/207/5
f 127/227/5 120/207/5 119/206/5
f 127/227/5 119/206/5 118/201/5
f 127/227/5 118/201/5 117/200/5
f 127/227/5 116/195/5 115/194/5
f 127/227/5 122/213/5 121/212/5
f 127/227/5 117/200/5 116/195/5
f 127/227/5 113/188/5 112/183/5
f 127/227/5 123/218/5 122/213/5
f 127/227/5 112/183/5 111/182/5
f 127/227/5 111/182/5 49/75/5
f 127/227/5 114/189/5 113/188/5
f 127/227/5 124/219/5 123/218/5
f 128/228/5 50/74/5 126/225/5
f 128/228/5 126/225/5 127/227/5
f 129/229/5 130/230/5 131/231/5
f 132/232/5 130/230/5 129/229/5
f 133/233/6 134/234/6 135/235/6
f 135/235/6 134/234/6 136/236/6
f 137/237/6 138/238/6 139/239/6
f 139/239/6 138/238/6 140/240/6
f 139/241/6 140/242/6 141/243/6
f 141/243/6 140/242/6 142/244/6
f 141/245/6 142/246/6 143/247/6
f 143/247/6 142/246/6 144/248/6
f 144/248/6 142/246/6 145/249/6
f 145/249/6 142/246/6 146/250/6
f 144/248/6 145/249/6 147/251/6
f 145/252/6 146/253/6 147/254/6
f 146/250/6 142/246/6 148/255/6
f 147/254/6 146/253/6 148/256/6
f 141/245/6 143/247/6 149/257/6
f 143/258/6 144/259/6 149/260/6
f 147/251/6 148/255/6 150/261/6
f 149/260/6 144/259/6 150/262/6
f 144/248/6 147/251/6 150/261/6
f 141/245/6 149/257/6 151/263/6
f 149/257/6 150/261/6 151/263/6
f 148/255/6 142/246/6 152/264/6
f 151/263/6 150/261/6 152/264/6
f 150/261/6 148/255/6 152/264/6
