# Blender v2.93.1 OBJ File: ''
# www.blender.org
mtllib F_Garbage5.mtl
o F_Garbage5
v -0.311873 0.065028 0.197339
v -0.311873 -0.034972 -0.102661
v -0.311873 -0.034972 0.197339
v -0.311873 0.065028 -0.102661
v -0.311873 -0.034972 -0.202662
v -0.311873 0.065028 -0.202661
v 0.288127 -0.034972 0.197339
v 0.288127 -0.034972 0.097339
v 0.288127 0.065028 0.197339
v 0.288127 -0.034972 -0.002661
v 0.288127 0.065028 0.097339
v 0.288127 -0.034972 -0.202662
v 0.288127 0.065028 -0.002661
v 0.288127 0.065028 -0.202661
v -0.211873 -0.034972 0.197339
v -0.311873 0.065028 0.197339
v -0.311873 -0.034972 0.197339
v -0.211873 0.065028 0.197339
v -0.111873 -0.034972 0.197339
v -0.111873 0.065028 0.197339
v -0.011873 -0.034972 0.197339
v -0.011873 0.065028 0.197339
v 0.088127 -0.034972 0.197339
v 0.088127 0.065028 0.197339
v 0.188127 -0.034972 0.197339
v 0.188127 0.065028 0.197339
v 0.288127 -0.034972 0.197339
v 0.288127 0.065028 0.197339
v -0.311873 -0.034972 -0.202662
v -0.311873 0.065028 -0.202661
v -0.211873 -0.034972 -0.202662
v -0.211873 0.065028 -0.202661
v -0.111873 -0.034972 -0.202662
v -0.111873 0.065028 -0.202661
v -0.011873 -0.034972 -0.202662
v -0.011873 0.065028 -0.202661
v 0.188127 -0.034972 -0.202662
v 0.188127 0.065028 -0.202661
v 0.288127 -0.034972 -0.202662
v 0.288127 0.065028 -0.202661
v 0.188127 -0.034972 0.097339
v 0.188127 -0.034972 0.197339
v 0.088127 -0.034972 0.197339
v 0.288127 -0.034972 0.197339
v 0.288127 -0.034972 0.097339
v -0.211873 -0.034972 -0.002661
v -0.211873 -0.034972 0.197339
v -0.311873 -0.034972 0.197339
v -0.111873 -0.034972 0.197339
v -0.111873 -0.034972 -0.002661
v -0.011873 -0.034972 0.197339
v -0.011873 -0.034972 -0.002661
v 0.088127 -0.034972 -0.002661
v 0.188127 -0.034972 -0.002661
v 0.288127 -0.034972 -0.002661
v -0.311873 -0.034972 -0.102661
v -0.211873 -0.034972 -0.102661
v -0.111873 -0.034972 -0.102661
v -0.011873 -0.034972 -0.102661
v 0.088127 -0.034972 -0.102661
v 0.188127 -0.034972 -0.102661
v -0.311873 -0.034972 -0.202662
v -0.211873 -0.034972 -0.202662
v -0.111873 -0.034972 -0.202662
v -0.011873 -0.034972 -0.202662
v 0.188127 -0.034972 -0.202662
v 0.288127 -0.034972 -0.202662
v 0.088127 0.065028 0.197339
v 0.188127 0.065028 0.197339
v 0.188127 0.065028 0.097339
v 0.288127 0.065028 0.197339
v 0.288127 0.065028 0.097339
v -0.311873 0.065028 0.197339
v -0.211873 0.065028 0.197339
v -0.211873 0.065028 -0.002661
v -0.111873 0.065028 0.197339
v -0.011873 0.065028 0.197339
v -0.111873 0.065028 -0.002661
v -0.011873 0.065028 -0.002661
v 0.088127 0.065028 -0.002661
v 0.188127 0.065028 -0.002661
v 0.288127 0.065028 -0.002661
v -0.311873 0.065028 -0.102661
v -0.211873 0.065028 -0.102661
v -0.111873 0.065028 -0.102661
v -0.011873 0.065028 -0.102661
v 0.088127 0.065028 -0.102661
v 0.188127 0.065028 -0.102661
v -0.311873 0.065028 -0.202661
v -0.211873 0.065028 -0.202661
v -0.111873 0.065028 -0.202661
v -0.011873 0.065028 -0.202661
v 0.188127 0.065028 -0.202661
v 0.288127 0.065028 -0.202661
vt 0.958984 0.500000
vt 0.958984 0.500000
vt 0.958984 0.500000
vt 0.966797 0.500000
vt 0.966797 0.500000
vt 0.966797 0.500000
vt 0.958984 0.500000
vt 0.966797 0.500000
vt 0.962891 0.500000
vt 0.962891 0.500000
vt 0.962891 0.500000
vt 0.958984 0.500000
vt 0.958984 0.500000
vt 0.958984 0.500000
vt 0.962891 0.500000
vt 0.966797 0.500000
vt 0.966797 0.500000
vt 0.966797 0.500000
vt 0.958984 0.500000
vt 0.966797 0.500000
vt 0.958984 0.500000
vt 0.958984 0.500000
vt 0.958984 0.500000
vt 0.958984 0.500000
vt 0.962891 0.500000
vt 0.962891 0.500000
vt 0.962891 0.500000
vt 0.962891 0.500000
vt 0.966797 0.500000
vt 0.966797 0.500000
vt 0.966797 0.500000
vt 0.966797 0.500000
vt 0.962891 0.500000
vt 0.962891 0.500000
vt 0.962891 0.500000
vt 0.962891 0.500000
vt 0.958984 0.500000
vt 0.958984 0.500000
vt 0.958984 0.500000
vt 0.958984 0.500000
vt 0.962891 0.500000
vt 0.962891 0.500000
vt 0.962891 0.500000
vt 0.962891 0.500000
vt 0.966797 0.500000
vt 0.966797 0.500000
vt 0.966797 0.500000
vt 0.966797 0.500000
vt 0.958984 0.500000
vt 0.958984 0.500000
vt 0.958984 0.500000
vt 0.958984 0.500000
vt 0.962891 0.500000
vt 0.962891 0.500000
vt 0.962891 0.500000
vt 0.962891 0.500000
vt 0.958984 0.500000
vt 0.958984 0.500000
vt 0.958984 0.500000
vt 0.958984 0.500000
vt 0.966797 0.500000
vt 0.966797 0.500000
vt 0.966797 0.500000
vt 0.966797 0.500000
vt 0.958984 0.500000
vt 0.958984 0.500000
vt 0.958984 0.500000
vt 0.962891 0.500000
vt 0.962891 0.500000
vt 0.962891 0.500000
vt 0.962891 0.500000
vt 0.958984 0.500000
vt 0.958984 0.500000
vt 0.958984 0.500000
vt 0.962891 0.500000
vt 0.962891 0.500000
vt 0.962891 0.500000
vt 0.966797 0.500000
vt 0.966797 0.500000
vt 0.966797 0.500000
vt 0.962891 0.500000
vt 0.962891 0.500000
vt 0.962891 0.500000
vt 0.962891 0.500000
vt 0.966797 0.500000
vt 0.958984 0.500000
vt 0.958984 0.500000
vt 0.962891 0.500000
vt 0.958984 0.500000
vt 0.958984 0.500000
vt 0.958984 0.500000
vt 0.958984 0.500000
vt 0.958984 0.500000
vt 0.958984 0.500000
vt 0.958984 0.500000
vt 0.966797 0.500000
vt 0.966797 0.500000
vt 0.958984 0.500000
vt 0.962891 0.500000
vt 0.962891 0.500000
vt 0.966797 0.500000
vt 0.966797 0.500000
vt 0.966797 0.500000
vt 0.966797 0.500000
vt 0.962891 0.500000
vt 0.966797 0.500000
vt 0.966797 0.500000
vt 0.966797 0.500000
vt 0.958984 0.500000
vt 0.966797 0.500000
vt 0.962891 0.500000
vt 0.962891 0.500000
vt 0.962891 0.500000
vt 0.958984 0.500000
vt 0.958984 0.500000
vt 0.958984 0.500000
vt 0.962891 0.500000
vt 0.958984 0.500000
vt 0.966797 0.500000
vt 0.958984 0.500000
vt 0.966797 0.500000
vt 0.958984 0.500000
vt 0.958984 0.500000
vt 0.958984 0.500000
vt 0.962891 0.500000
vt 0.962891 0.500000
vt 0.962891 0.500000
vt 0.962891 0.500000
vt 0.958984 0.500000
vt 0.958984 0.500000
vt 0.958984 0.500000
vt 0.962891 0.500000
vt 0.962891 0.500000
vt 0.962891 0.500000
vt 0.966797 0.500000
vt 0.966797 0.500000
vt 0.966797 0.500000
vt 0.962891 0.500000
vt 0.962891 0.500000
vt 0.962891 0.500000
vt 0.962891 0.500000
vt 0.966797 0.500000
vt 0.958984 0.500000
vt 0.958984 0.500000
vt 0.962891 0.500000
vt 0.958984 0.500000
vt 0.958984 0.500000
vt 0.958984 0.500000
vt 0.958984 0.500000
vt 0.958984 0.500000
vt 0.958984 0.500000
vt 0.958984 0.500000
vt 0.966797 0.500000
vt 0.966797 0.500000
vt 0.958984 0.500000
vt 0.962891 0.500000
vt 0.962891 0.500000
vt 0.966797 0.500000
vt 0.966797 0.500000
vt 0.966797 0.500000
vt 0.966797 0.500000
vt 0.962891 0.500000
vt 0.966797 0.500000
vt 0.966797 0.500000
vt 0.966797 0.500000
vt 0.958984 0.500000
vt 0.966797 0.500000
vt 0.962891 0.500000
vt 0.962891 0.500000
vt 0.962891 0.500000
vt 0.958984 0.500000
vt 0.958984 0.500000
vt 0.958984 0.500000
vt 0.962891 0.500000
vt 0.958984 0.500000
vt 0.966797 0.500000
vt 0.958984 0.500000
vt 0.966797 0.500000
vn -1.0000 0.0000 0.0000
vn 1.0000 -0.0000 0.0000
vn 0.0000 -0.0000 1.0000
vn 0.0000 0.0000 -1.0000
vn 0.0000 -1.0000 -0.0000
vn 0.0000 1.0000 0.0000
usemtl palette.008
s 1
f 1/1/1 2/2/1 3/3/1
f 4/4/1 5/5/1 2/6/1
f 4/7/1 2/2/1 1/1/1
f 6/8/1 5/5/1 4/4/1
f 7/9/2 8/10/2 9/11/2
f 8/12/2 10/13/2 11/14/2
f 9/11/2 8/10/2 11/15/2
f 10/16/2 12/17/2 13/18/2
f 11/14/2 10/13/2 13/19/2
f 13/18/2 12/17/2 14/20/2
f 15/21/3 16/22/3 17/23/3
f 18/24/3 16/22/3 15/21/3
f 19/25/3 18/26/3 15/27/3
f 20/28/3 18/26/3 19/25/3
f 21/29/3 20/30/3 19/31/3
f 22/32/3 20/30/3 21/29/3
f 23/33/3 22/34/3 21/35/3
f 24/36/3 22/34/3 23/33/3
f 25/37/3 24/38/3 23/39/3
f 26/40/3 24/38/3 25/37/3
f 27/41/3 26/42/3 25/43/3
f 28/44/3 26/42/3 27/41/3
f 29/45/4 30/46/4 31/47/4
f 31/47/4 30/46/4 32/48/4
f 31/49/4 32/50/4 33/51/4
f 33/51/4 32/50/4 34/52/4
f 33/53/4 34/54/4 35/55/4
f 35/55/4 34/54/4 36/56/4
f 35/57/4 36/58/4 37/59/4
f 37/59/4 36/58/4 38/60/4
f 37/61/4 38/62/4 39/63/4
f 39/63/4 38/62/4 40/64/4
f 41/65/5 42/66/5 43/67/5
f 41/68/5 44/69/5 42/70/5
f 45/71/5 44/69/5 41/68/5
f 46/72/5 47/73/5 48/74/5
f 46/75/5 49/76/5 47/77/5
f 50/78/5 51/79/5 49/80/5
f 50/81/5 49/76/5 46/75/5
f 52/82/5 43/83/5 51/84/5
f 52/85/5 51/79/5 50/78/5
f 53/86/5 45/87/5 41/65/5
f 53/88/5 43/83/5 52/82/5
f 53/86/5 41/65/5 43/67/5
f 54/89/5 45/87/5 53/86/5
f 55/90/5 45/87/5 54/89/5
f 56/91/5 52/92/5 50/93/5
f 56/91/5 46/72/5 48/74/5
f 56/91/5 50/93/5 46/72/5
f 57/94/5 52/92/5 56/91/5
f 58/95/5 52/92/5 57/94/5
f 59/96/5 53/97/5 52/85/5
f 59/98/5 52/92/5 58/95/5
f 60/99/5 54/100/5 53/88/5
f 60/101/5 53/97/5 59/96/5
f 61/102/5 55/103/5 54/104/5
f 61/105/5 54/100/5 60/99/5
f 62/106/5 57/107/5 56/108/5
f 63/109/5 58/95/5 57/94/5
f 63/110/5 57/107/5 62/106/5
f 64/111/5 59/112/5 58/113/5
f 64/114/5 58/95/5 63/109/5
f 65/115/5 60/116/5 59/98/5
f 65/117/5 59/112/5 64/111/5
f 65/115/5 61/118/5 60/116/5
f 66/119/5 55/103/5 61/102/5
f 66/120/5 61/118/5 65/115/5
f 67/121/5 55/103/5 66/119/5
f 68/122/6 69/123/6 70/124/6
f 69/125/6 71/126/6 70/127/6
f 70/127/6 71/126/6 72/128/6
f 73/129/6 74/130/6 75/131/6
f 74/132/6 76/133/6 75/134/6
f 76/135/6 77/136/6 78/137/6
f 75/134/6 76/133/6 78/138/6
f 77/139/6 68/140/6 79/141/6
f 78/137/6 77/136/6 79/142/6
f 70/124/6 72/143/6 80/144/6
f 79/141/6 68/140/6 80/145/6
f 68/122/6 70/124/6 80/144/6
f 80/144/6 72/143/6 81/146/6
f 81/146/6 72/143/6 82/147/6
f 78/148/6 79/149/6 83/150/6
f 73/129/6 75/131/6 83/150/6
f 75/131/6 78/148/6 83/150/6
f 83/150/6 79/149/6 84/151/6
f 84/151/6 79/149/6 85/152/6
f 79/142/6 80/153/6 86/154/6
f 85/152/6 79/149/6 86/155/6
f 80/145/6 81/156/6 87/157/6
f 86/154/6 80/153/6 87/158/6
f 81/159/6 82/160/6 88/161/6
f 87/157/6 81/156/6 88/162/6
f 83/163/6 84/164/6 89/165/6
f 84/151/6 85/152/6 90/166/6
f 89/165/6 84/164/6 90/167/6
f 85/168/6 86/169/6 91/170/6
f 90/166/6 85/152/6 91/171/6
f 86/155/6 87/172/6 92/173/6
f 91/170/6 86/169/6 92/174/6
f 87/172/6 88/175/6 92/173/6
f 88/161/6 82/160/6 93/176/6
f 92/173/6 88/175/6 93/177/6
f 93/176/6 82/160/6 94/178/6
