# MagicaVoxel @ Ephtracy

# group
o 

# material
mtllib F_Mouse.mtl
usemtl palette

# normals
vn -1 0 0
vn 1 0 0
vn 0 0 1
vn 0 0 -1
vn 0 -1 0
vn 0 1 0

# texcoords
vt 0.982422 0.5
vt 0.986328 0.5
vt 0.990234 0.5

# verts
v -0.5 2 0.5
v -0.5 2 0.2
v -0.5 2.1 0.5
v -0.5 2.1 0.2
v -0.1 2 0.5
v -0.1 2 0.4
v -0.1 2 0.3
v -0.1 2 0.2
v -0.1 2.1 0.5
v -0.1 2.1 0.4
v -0.1 2.1 0.3
v -0.1 2.1 0.2
v -0.5 2 0.5
v -0.5 2.1 0.5
v -0.3 2 0.5
v -0.3 2.1 0.5
v -0.1 2 0.5
v -0.1 2.1 0.5
v -0.5 2 0.2
v -0.5 2.1 0.2
v -0.3 2 0.2
v -0.3 2.1 0.2
v -0.1 2 0.2
v -0.1 2.1 0.2
v -0.5 2 0.5
v -0.3 2 0.5
v -0.1 2 0.5
v -0.3 2 0.4
v -0.1 2 0.4
v -0.3 2 0.3
v -0.1 2 0.3
v -0.5 2 0.2
v -0.3 2 0.2
v -0.1 2 0.2
v -0.5 2.1 0.5
v -0.3 2.1 0.5
v -0.1 2.1 0.5
v -0.3 2.1 0.4
v -0.1 2.1 0.4
v -0.3 2.1 0.3
v -0.1 2.1 0.3
v -0.5 2.1 0.2
v -0.3 2.1 0.2
v -0.1 2.1 0.2

# faces
f 3/1/1 2/1/1 1/1/1
f 4/1/1 2/1/1 3/1/1
f 5/2/2 6/2/2 9/2/2
f 6/3/2 7/3/2 10/3/2
f 9/2/2 6/2/2 10/2/2
f 7/2/2 8/2/2 11/2/2
f 10/3/2 7/3/2 11/3/2
f 11/2/2 8/2/2 12/2/2
f 15/1/3 14/1/3 13/1/3
f 16/1/3 14/1/3 15/1/3
f 17/2/3 16/2/3 15/2/3
f 18/2/3 16/2/3 17/2/3
f 19/1/4 20/1/4 21/1/4
f 21/1/4 20/1/4 22/1/4
f 21/2/4 22/2/4 23/2/4
f 23/2/4 22/2/4 24/2/4
f 28/1/5 26/1/5 25/1/5
f 28/2/5 27/2/5 26/2/5
f 29/2/5 27/2/5 28/2/5
f 30/1/5 28/1/5 25/1/5
f 30/3/5 29/3/5 28/3/5
f 31/3/5 29/3/5 30/3/5
f 32/1/5 30/1/5 25/1/5
f 33/2/5 31/2/5 30/2/5
f 33/1/5 30/1/5 32/1/5
f 34/2/5 31/2/5 33/2/5
f 35/1/6 36/1/6 38/1/6
f 36/2/6 37/2/6 38/2/6
f 38/2/6 37/2/6 39/2/6
f 35/1/6 38/1/6 40/1/6
f 38/3/6 39/3/6 40/3/6
f 40/3/6 39/3/6 41/3/6
f 35/1/6 40/1/6 42/1/6
f 40/2/6 41/2/6 43/2/6
f 42/1/6 40/1/6 43/1/6
f 43/2/6 41/2/6 44/2/6
