# Blender v2.93.1 OBJ File: ''
# www.blender.org
mtllib F_PhotoboxLid.mtl
o F_PhotoboxLid
v -0.718923 0.008038 0.446547
v -0.718923 -0.091962 -0.453453
v -0.718923 -0.091962 0.446547
v -0.718923 0.008038 0.346547
v -0.718923 0.008038 -0.353453
v -0.718923 0.008038 -0.453453
v -0.718923 0.108038 0.346547
v -0.718923 0.108038 -0.353453
v -0.618923 0.108038 0.446547
v -0.618923 0.008038 0.346547
v -0.618923 0.008038 0.446547
v -0.618923 0.108038 0.346547
v -0.618923 0.108038 -0.353453
v -0.618923 0.008038 -0.453453
v -0.618923 0.008038 -0.353453
v -0.618923 0.108038 -0.453453
v 0.481077 0.008038 0.346547
v 0.481077 -0.091962 -0.353453
v 0.481077 -0.091962 0.346547
v 0.481077 0.008038 -0.353453
v -0.618923 -0.091962 0.346547
v -0.618923 -0.091962 -0.353453
v -0.618923 0.008038 0.346547
v -0.618923 0.008038 -0.353453
v 0.481077 0.008038 0.446547
v 0.481077 0.008038 0.346547
v 0.481077 0.108038 0.446547
v 0.481077 0.108038 0.346547
v 0.481077 0.008038 -0.353453
v 0.481077 0.008038 -0.453453
v 0.481077 0.108038 -0.353453
v 0.481077 0.108038 -0.453453
v 0.581077 -0.091962 0.446547
v 0.581077 -0.091962 -0.453453
v 0.581077 0.008038 0.446547
v 0.581077 0.008038 0.346547
v 0.581077 0.008038 -0.353453
v 0.581077 0.008038 -0.453453
v 0.581077 0.108038 0.346547
v 0.581077 0.108038 -0.353453
v -0.618923 0.008038 0.446547
v -0.718923 0.008038 0.446547
v -0.718923 -0.091962 0.446547
v 0.481077 0.008038 0.446547
v -0.618923 0.108038 0.446547
v 0.481077 0.108038 0.446547
v 0.581077 -0.091962 0.446547
v 0.581077 0.008038 0.446547
v -0.618923 0.008038 0.346547
v -0.718923 0.108038 0.346547
v -0.718923 0.008038 0.346547
v -0.618923 0.108038 0.346547
v 0.581077 0.008038 0.346547
v 0.481077 0.108038 0.346547
v 0.481077 0.008038 0.346547
v 0.581077 0.108038 0.346547
v -0.518923 0.008038 -0.353453
v -0.618923 0.008038 -0.353453
v -0.618923 -0.091962 -0.353453
v -0.318923 0.008038 -0.353453
v 0.181077 0.008038 -0.353453
v 0.381077 0.008038 -0.353453
v 0.481077 -0.091962 -0.353453
v 0.481077 0.008038 -0.353453
v -0.618923 -0.091962 0.346547
v -0.618923 0.008038 0.346547
v -0.518923 0.008038 0.346547
v -0.318923 0.008038 0.346547
v 0.181077 0.008038 0.346547
v 0.381077 0.008038 0.346547
v 0.481077 -0.091962 0.346547
v 0.481077 0.008038 0.346547
v -0.718923 0.008038 -0.353453
v -0.718923 0.108038 -0.353453
v -0.618923 0.008038 -0.353453
v -0.618923 0.108038 -0.353453
v 0.481077 0.008038 -0.353453
v 0.481077 0.108038 -0.353453
v 0.581077 0.008038 -0.353453
v 0.581077 0.108038 -0.353453
v -0.718923 -0.091962 -0.453453
v -0.718923 0.008038 -0.453453
v -0.618923 0.008038 -0.453453
v 0.481077 0.008038 -0.453453
v -0.618923 0.108038 -0.453453
v 0.481077 0.108038 -0.453453
v 0.581077 -0.091962 -0.453453
v 0.581077 0.008038 -0.453453
v -0.618923 -0.091962 0.346547
v 0.581077 -0.091962 0.446547
v -0.718923 -0.091962 0.446547
v 0.481077 -0.091962 0.346547
v -0.618923 -0.091962 -0.353453
v 0.481077 -0.091962 -0.353453
v -0.718923 -0.091962 -0.453453
v 0.581077 -0.091962 -0.453453
v -0.518923 0.008038 0.246547
v -0.518923 0.008038 0.346547
v -0.618923 0.008038 0.346547
v -0.318923 0.008038 0.346547
v -0.418923 0.008038 0.246547
v -0.318923 0.008038 0.246547
v 0.181077 0.008038 0.346547
v -0.218923 0.008038 0.246547
v 0.081077 0.008038 0.246547
v 0.181077 0.008038 0.246547
v 0.381077 0.008038 0.346547
v 0.281077 0.008038 0.246547
v 0.381077 0.008038 0.246547
v 0.481077 0.008038 0.346547
v -0.418923 0.008038 0.146547
v -0.318923 0.008038 0.146547
v -0.218923 0.008038 0.146547
v -0.118923 0.008038 0.146547
v -0.018923 0.008038 0.146547
v 0.081077 0.008038 0.146547
v 0.181077 0.008038 0.146547
v 0.281077 0.008038 0.146547
v -0.318923 0.008038 0.046547
v -0.218923 0.008038 0.046547
v -0.118923 0.008038 0.046547
v -0.018923 0.008038 0.046547
v 0.081077 0.008038 0.046547
v 0.181077 0.008038 0.046547
v -0.318923 0.008038 -0.053453
v -0.218923 0.008038 -0.053453
v -0.118923 0.008038 -0.053453
v -0.018923 0.008038 -0.053453
v 0.081077 0.008038 -0.053453
v 0.181077 0.008038 -0.053453
v -0.418923 0.008038 -0.153453
v -0.318923 0.008038 -0.153453
v -0.218923 0.008038 -0.153453
v -0.118923 0.008038 -0.153453
v -0.018923 0.008038 -0.153453
v 0.081077 0.008038 -0.153453
v 0.181077 0.008038 -0.153453
v 0.281077 0.008038 -0.153453
v -0.518923 0.008038 -0.253453
v -0.418923 0.008038 -0.253453
v -0.318923 0.008038 -0.253453
v -0.218923 0.008038 -0.253453
v 0.081077 0.008038 -0.253453
v 0.181077 0.008038 -0.253453
v 0.281077 0.008038 -0.253453
v 0.381077 0.008038 -0.253453
v -0.618923 0.008038 -0.353453
v -0.518923 0.008038 -0.353453
v -0.318923 0.008038 -0.353453
v 0.181077 0.008038 -0.353453
v 0.381077 0.008038 -0.353453
v 0.481077 0.008038 -0.353453
v -0.718923 0.008038 0.446547
v -0.618923 0.008038 0.446547
v -0.718923 0.008038 0.346547
v -0.618923 0.008038 0.346547
v 0.481077 0.008038 0.446547
v 0.581077 0.008038 0.446547
v 0.481077 0.008038 0.346547
v 0.581077 0.008038 0.346547
v -0.718923 0.008038 -0.353453
v -0.618923 0.008038 -0.353453
v -0.718923 0.008038 -0.453453
v -0.618923 0.008038 -0.453453
v 0.481077 0.008038 -0.353453
v 0.581077 0.008038 -0.353453
v 0.481077 0.008038 -0.453453
v 0.581077 0.008038 -0.453453
v -0.618923 0.108038 0.446547
v 0.481077 0.108038 0.446547
v -0.618923 0.108038 0.346547
v -0.518923 0.108038 0.346547
v -0.318923 0.108038 0.346547
v 0.181077 0.108038 0.346547
v 0.381077 0.108038 0.346547
v 0.481077 0.108038 0.346547
v -0.718923 0.108038 0.346547
v -0.518923 0.108038 0.246547
v -0.418923 0.108038 0.246547
v -0.318923 0.108038 0.246547
v -0.218923 0.108038 0.246547
v 0.081077 0.108038 0.246547
v 0.181077 0.108038 0.246547
v 0.281077 0.108038 0.246547
v 0.581077 0.108038 0.346547
v 0.381077 0.108038 0.246547
v -0.418923 0.108038 0.146547
v -0.318923 0.108038 0.146547
v -0.218923 0.108038 0.146547
v -0.118923 0.108038 0.146547
v -0.018923 0.108038 0.146547
v 0.081077 0.108038 0.146547
v 0.181077 0.108038 0.146547
v 0.281077 0.108038 0.146547
v -0.318923 0.108038 0.046547
v -0.218923 0.108038 0.046547
v -0.118923 0.108038 0.046547
v -0.018923 0.108038 0.046547
v 0.081077 0.108038 0.046547
v 0.181077 0.108038 0.046547
v -0.318923 0.108038 -0.053453
v -0.218923 0.108038 -0.053453
v -0.118923 0.108038 -0.053453
v -0.018923 0.108038 -0.053453
v 0.081077 0.108038 -0.053453
v 0.181077 0.108038 -0.053453
v -0.418923 0.108038 -0.153453
v -0.318923 0.108038 -0.153453
v -0.218923 0.108038 -0.153453
v -0.118923 0.108038 -0.153453
v -0.018923 0.108038 -0.153453
v 0.081077 0.108038 -0.153453
v 0.181077 0.108038 -0.153453
v 0.281077 0.108038 -0.153453
v -0.518923 0.108038 -0.253453
v -0.418923 0.108038 -0.253453
v -0.318923 0.108038 -0.253453
v -0.218923 0.108038 -0.253453
v 0.081077 0.108038 -0.253453
v 0.181077 0.108038 -0.253453
v 0.281077 0.108038 -0.253453
v 0.381077 0.108038 -0.253453
v -0.718923 0.108038 -0.353453
v -0.618923 0.108038 -0.353453
v -0.518923 0.108038 -0.353453
v -0.318923 0.108038 -0.353453
v 0.181077 0.108038 -0.353453
v 0.381077 0.108038 -0.353453
v 0.481077 0.108038 -0.353453
v 0.581077 0.108038 -0.353453
v -0.618923 0.108038 -0.453453
v 0.481077 0.108038 -0.453453
vt 0.365234 0.500000
vt 0.365234 0.500000
vt 0.365234 0.500000
vt 0.365234 0.500000
vt 0.365234 0.500000
vt 0.365234 0.500000
vt 0.365234 0.500000
vt 0.365234 0.500000
vt 0.365234 0.500000
vt 0.365234 0.500000
vt 0.365234 0.500000
vt 0.365234 0.500000
vt 0.365234 0.500000
vt 0.365234 0.500000
vt 0.365234 0.500000
vt 0.365234 0.500000
vt 0.365234 0.500000
vt 0.365234 0.500000
vt 0.365234 0.500000
vt 0.365234 0.500000
vt 0.365234 0.500000
vt 0.365234 0.500000
vt 0.365234 0.500000
vt 0.365234 0.500000
vt 0.365234 0.500000
vt 0.365234 0.500000
vt 0.365234 0.500000
vt 0.365234 0.500000
vt 0.365234 0.500000
vt 0.365234 0.500000
vt 0.365234 0.500000
vt 0.365234 0.500000
vt 0.365234 0.500000
vt 0.365234 0.500000
vt 0.365234 0.500000
vt 0.365234 0.500000
vt 0.365234 0.500000
vt 0.365234 0.500000
vt 0.365234 0.500000
vt 0.365234 0.500000
vt 0.365234 0.500000
vt 0.365234 0.500000
vt 0.365234 0.500000
vt 0.365234 0.500000
vt 0.365234 0.500000
vt 0.365234 0.500000
vt 0.365234 0.500000
vt 0.365234 0.500000
vt 0.365234 0.500000
vt 0.365234 0.500000
vt 0.365234 0.500000
vt 0.365234 0.500000
vt 0.365234 0.500000
vt 0.365234 0.500000
vt 0.365234 0.500000
vt 0.365234 0.500000
vt 0.365234 0.500000
vt 0.365234 0.500000
vt 0.365234 0.500000
vt 0.365234 0.500000
vt 0.365234 0.500000
vt 0.365234 0.500000
vt 0.365234 0.500000
vt 0.365234 0.500000
vt 0.365234 0.500000
vt 0.365234 0.500000
vt 0.365234 0.500000
vt 0.365234 0.500000
vt 0.365234 0.500000
vt 0.365234 0.500000
vt 0.365234 0.500000
vt 0.365234 0.500000
vt 0.365234 0.500000
vt 0.365234 0.500000
vt 0.365234 0.500000
vt 0.365234 0.500000
vt 0.365234 0.500000
vt 0.365234 0.500000
vt 0.365234 0.500000
vt 0.365234 0.500000
vt 0.365234 0.500000
vt 0.365234 0.500000
vt 0.365234 0.500000
vt 0.365234 0.500000
vt 0.365234 0.500000
vt 0.365234 0.500000
vt 0.365234 0.500000
vt 0.365234 0.500000
vt 0.365234 0.500000
vt 0.365234 0.500000
vt 0.365234 0.500000
vt 0.365234 0.500000
vt 0.365234 0.500000
vt 0.365234 0.500000
vt 0.365234 0.500000
vt 0.365234 0.500000
vt 0.365234 0.500000
vt 0.365234 0.500000
vt 0.365234 0.500000
vt 0.419922 0.500000
vt 0.419922 0.500000
vt 0.419922 0.500000
vt 0.419922 0.500000
vt 0.365234 0.500000
vt 0.365234 0.500000
vt 0.365234 0.500000
vt 0.419922 0.500000
vt 0.365234 0.500000
vt 0.365234 0.500000
vt 0.419922 0.500000
vt 0.419922 0.500000
vt 0.419922 0.500000
vt 0.365234 0.500000
vt 0.419922 0.500000
vt 0.365234 0.500000
vt 0.365234 0.500000
vt 0.365234 0.500000
vt 0.419922 0.500000
vt 0.365234 0.500000
vt 0.365234 0.500000
vt 0.419922 0.500000
vt 0.419922 0.500000
vt 0.419922 0.500000
vt 0.365234 0.500000
vt 0.419922 0.500000
vt 0.365234 0.500000
vt 0.365234 0.500000
vt 0.419922 0.500000
vt 0.365234 0.500000
vt 0.419922 0.500000
vt 0.419922 0.500000
vt 0.365234 0.500000
vt 0.365234 0.500000
vt 0.419922 0.500000
vt 0.365234 0.500000
vt 0.365234 0.500000
vt 0.419922 0.500000
vt 0.419922 0.500000
vt 0.419922 0.500000
vt 0.365234 0.500000
vt 0.419922 0.500000
vt 0.419922 0.500000
vt 0.365234 0.500000
vt 0.419922 0.500000
vt 0.419922 0.500000
vt 0.365234 0.500000
vt 0.365234 0.500000
vt 0.419922 0.500000
vt 0.365234 0.500000
vt 0.365234 0.500000
vt 0.419922 0.500000
vt 0.365234 0.500000
vt 0.419922 0.500000
vt 0.419922 0.500000
vt 0.365234 0.500000
vt 0.365234 0.500000
vt 0.419922 0.500000
vt 0.365234 0.500000
vt 0.365234 0.500000
vt 0.419922 0.500000
vt 0.419922 0.500000
vt 0.365234 0.500000
vt 0.419922 0.500000
vt 0.365234 0.500000
vt 0.365234 0.500000
vt 0.365234 0.500000
vt 0.419922 0.500000
vt 0.419922 0.500000
vt 0.365234 0.500000
vt 0.419922 0.500000
vt 0.419922 0.500000
vt 0.365234 0.500000
vt 0.419922 0.500000
vt 0.365234 0.500000
vt 0.365234 0.500000
vt 0.419922 0.500000
vt 0.365234 0.500000
vt 0.419922 0.500000
vt 0.419922 0.500000
vt 0.365234 0.500000
vt 0.365234 0.500000
vt 0.419922 0.500000
vt 0.365234 0.500000
vt 0.419922 0.500000
vt 0.365234 0.500000
vt 0.419922 0.500000
vt 0.419922 0.500000
vt 0.365234 0.500000
vt 0.419922 0.500000
vt 0.365234 0.500000
vt 0.365234 0.500000
vt 0.419922 0.500000
vt 0.365234 0.500000
vt 0.419922 0.500000
vt 0.365234 0.500000
vt 0.365234 0.500000
vt 0.419922 0.500000
vt 0.365234 0.500000
vt 0.419922 0.500000
vt 0.365234 0.500000
vt 0.419922 0.500000
vt 0.365234 0.500000
vt 0.419922 0.500000
vt 0.365234 0.500000
vt 0.365234 0.500000
vt 0.365234 0.500000
vt 0.365234 0.500000
vt 0.365234 0.500000
vt 0.365234 0.500000
vt 0.365234 0.500000
vt 0.365234 0.500000
vt 0.365234 0.500000
vt 0.365234 0.500000
vt 0.365234 0.500000
vt 0.365234 0.500000
vt 0.365234 0.500000
vt 0.365234 0.500000
vt 0.365234 0.500000
vt 0.365234 0.500000
vt 0.365234 0.500000
vt 0.365234 0.500000
vt 0.365234 0.500000
vt 0.365234 0.500000
vt 0.365234 0.500000
vt 0.365234 0.500000
vt 0.365234 0.500000
vt 0.365234 0.500000
vt 0.365234 0.500000
vt 0.365234 0.500000
vt 0.365234 0.500000
vt 0.419922 0.500000
vt 0.419922 0.500000
vt 0.419922 0.500000
vt 0.419922 0.500000
vt 0.365234 0.500000
vt 0.419922 0.500000
vt 0.365234 0.500000
vt 0.365234 0.500000
vt 0.419922 0.500000
vt 0.419922 0.500000
vt 0.419922 0.500000
vt 0.365234 0.500000
vt 0.419922 0.500000
vt 0.365234 0.500000
vt 0.365234 0.500000
vt 0.419922 0.500000
vt 0.365234 0.500000
vt 0.365234 0.500000
vt 0.419922 0.500000
vt 0.419922 0.500000
vt 0.419922 0.500000
vt 0.365234 0.500000
vt 0.419922 0.500000
vt 0.365234 0.500000
vt 0.365234 0.500000
vt 0.419922 0.500000
vt 0.365234 0.500000
vt 0.419922 0.500000
vt 0.419922 0.500000
vt 0.365234 0.500000
vt 0.365234 0.500000
vt 0.419922 0.500000
vt 0.419922 0.500000
vt 0.419922 0.500000
vt 0.365234 0.500000
vt 0.365234 0.500000
vt 0.419922 0.500000
vt 0.365234 0.500000
vt 0.419922 0.500000
vt 0.419922 0.500000
vt 0.365234 0.500000
vt 0.419922 0.500000
vt 0.419922 0.500000
vt 0.365234 0.500000
vt 0.365234 0.500000
vt 0.419922 0.500000
vt 0.365234 0.500000
vt 0.365234 0.500000
vt 0.419922 0.500000
vt 0.365234 0.500000
vt 0.419922 0.500000
vt 0.419922 0.500000
vt 0.365234 0.500000
vt 0.365234 0.500000
vt 0.419922 0.500000
vt 0.365234 0.500000
vt 0.365234 0.500000
vt 0.419922 0.500000
vt 0.419922 0.500000
vt 0.365234 0.500000
vt 0.419922 0.500000
vt 0.365234 0.500000
vt 0.365234 0.500000
vt 0.365234 0.500000
vt 0.419922 0.500000
vt 0.419922 0.500000
vt 0.365234 0.500000
vt 0.419922 0.500000
vt 0.419922 0.500000
vt 0.365234 0.500000
vt 0.419922 0.500000
vt 0.365234 0.500000
vt 0.365234 0.500000
vt 0.419922 0.500000
vt 0.365234 0.500000
vt 0.419922 0.500000
vt 0.419922 0.500000
vt 0.365234 0.500000
vt 0.365234 0.500000
vt 0.419922 0.500000
vt 0.365234 0.500000
vt 0.419922 0.500000
vt 0.365234 0.500000
vt 0.419922 0.500000
vt 0.419922 0.500000
vt 0.365234 0.500000
vt 0.419922 0.500000
vt 0.365234 0.500000
vt 0.365234 0.500000
vt 0.365234 0.500000
vt 0.419922 0.500000
vt 0.365234 0.500000
vt 0.419922 0.500000
vt 0.365234 0.500000
vt 0.365234 0.500000
vt 0.419922 0.500000
vt 0.365234 0.500000
vt 0.419922 0.500000
vt 0.365234 0.500000
vt 0.419922 0.500000
vt 0.365234 0.500000
vt 0.419922 0.500000
vt 0.365234 0.500000
vt 0.365234 0.500000
vt 0.365234 0.500000
vt 0.365234 0.500000
vn -1.0000 0.0000 0.0000
vn 1.0000 0.0000 0.0000
vn 0.0000 0.0000 1.0000
vn 0.0000 0.0000 -1.0000
vn 0.0000 -1.0000 -0.0000
vn 0.0000 1.0000 0.0000
usemtl palette.012
s 1
f 1/1/1 2/2/1 3/3/1
f 4/4/1 2/2/1 1/1/1
f 5/5/1 2/2/1 4/4/1
f 6/6/1 2/2/1 5/5/1
f 7/7/1 5/5/1 4/4/1
f 8/8/1 5/5/1 7/7/1
f 9/9/1 10/10/1 11/11/1
f 12/12/1 10/10/1 9/9/1
f 13/13/1 14/14/1 15/15/1
f 16/16/1 14/14/1 13/13/1
f 17/17/1 18/18/1 19/19/1
f 20/20/1 18/18/1 17/17/1
f 21/21/2 22/22/2 23/23/2
f 23/23/2 22/22/2 24/24/2
f 25/25/2 26/26/2 27/27/2
f 27/27/2 26/26/2 28/28/2
f 29/29/2 30/30/2 31/31/2
f 31/31/2 30/30/2 32/32/2
f 33/33/2 34/34/2 35/35/2
f 35/35/2 34/34/2 36/36/2
f 36/36/2 34/34/2 37/37/2
f 37/37/2 34/34/2 38/38/2
f 36/36/2 37/37/2 39/39/2
f 39/39/2 37/37/2 40/40/2
f 41/41/3 42/42/3 43/43/3
f 44/44/3 41/41/3 43/43/3
f 44/44/3 45/45/3 41/41/3
f 46/46/3 45/45/3 44/44/3
f 47/47/3 44/44/3 43/43/3
f 48/48/3 44/44/3 47/47/3
f 49/49/3 50/50/3 51/51/3
f 52/52/3 50/50/3 49/49/3
f 53/53/3 54/54/3 55/55/3
f 56/56/3 54/54/3 53/53/3
f 57/57/3 58/58/3 59/59/3
f 60/60/3 57/57/3 59/59/3
f 61/61/3 60/60/3 59/59/3
f 62/62/3 61/61/3 59/59/3
f 63/63/3 62/62/3 59/59/3
f 64/64/3 62/62/3 63/63/3
f 65/65/4 66/66/4 67/67/4
f 65/65/4 67/67/4 68/68/4
f 65/65/4 68/68/4 69/69/4
f 65/65/4 69/69/4 70/70/4
f 65/65/4 70/70/4 71/71/4
f 71/71/4 70/70/4 72/72/4
f 73/73/4 74/74/4 75/75/4
f 75/75/4 74/74/4 76/76/4
f 77/77/4 78/78/4 79/79/4
f 79/79/4 78/78/4 80/80/4
f 81/81/4 82/82/4 83/83/4
f 81/81/4 83/83/4 84/84/4
f 83/83/4 85/85/4 84/84/4
f 84/84/4 85/85/4 86/86/4
f 81/81/4 84/84/4 87/87/4
f 87/87/4 84/84/4 88/88/4
f 89/89/5 90/90/5 91/91/5
f 92/92/5 90/90/5 89/89/5
f 93/93/5 89/89/5 91/91/5
f 94/94/5 90/90/5 92/92/5
f 95/95/5 93/93/5 91/91/5
f 95/95/5 94/94/5 93/93/5
f 96/96/5 90/90/5 94/94/5
f 96/96/5 94/94/5 95/95/5
f 97/97/5 98/98/5 99/99/5
f 97/100/5 100/101/5 98/102/5
f 101/103/5 100/101/5 97/100/5
f 102/104/5 103/105/5 100/106/5
f 102/107/5 100/101/5 101/103/5
f 104/108/5 103/105/5 102/104/5
f 105/109/5 103/105/5 104/108/5
f 106/110/5 107/111/5 103/112/5
f 106/113/5 103/105/5 105/109/5
f 108/114/5 107/111/5 106/110/5
f 109/115/5 110/116/5 107/117/5
f 109/118/5 107/111/5 108/114/5
f 111/119/5 101/120/5 97/97/5
f 111/121/5 102/107/5 101/103/5
f 111/121/5 104/122/5 102/107/5
f 112/123/5 104/122/5 111/121/5
f 113/124/5 105/109/5 104/108/5
f 113/125/5 104/122/5 112/123/5
f 114/126/5 105/109/5 113/124/5
f 115/127/5 105/109/5 114/126/5
f 116/128/5 108/114/5 106/110/5
f 116/129/5 105/109/5 115/127/5
f 116/128/5 106/110/5 105/130/5
f 117/131/5 108/114/5 116/128/5
f 118/132/5 109/115/5 108/133/5
f 118/134/5 108/114/5 117/131/5
f 119/135/5 112/136/5 111/119/5
f 119/137/5 114/138/5 113/125/5
f 119/137/5 113/125/5 112/123/5
f 120/139/5 114/138/5 119/137/5
f 121/140/5 115/127/5 114/126/5
f 121/141/5 114/138/5 120/139/5
f 122/142/5 117/131/5 116/128/5
f 122/143/5 115/127/5 121/140/5
f 122/142/5 116/128/5 115/144/5
f 123/145/5 117/131/5 122/142/5
f 124/146/5 118/132/5 117/147/5
f 124/148/5 117/131/5 123/145/5
f 125/149/5 120/150/5 119/135/5
f 125/149/5 119/135/5 111/119/5
f 126/151/5 121/141/5 120/139/5
f 126/152/5 120/150/5 125/149/5
f 126/151/5 123/145/5 122/142/5
f 126/151/5 122/142/5 121/141/5
f 127/153/5 123/145/5 126/151/5
f 128/154/5 123/145/5 127/153/5
f 129/155/5 124/146/5 123/156/5
f 129/157/5 123/145/5 128/154/5
f 130/158/5 118/132/5 124/146/5
f 130/158/5 124/146/5 129/155/5
f 131/159/5 125/149/5 111/119/5
f 131/159/5 111/119/5 97/97/5
f 132/160/5 126/151/5 125/161/5
f 132/162/5 125/149/5 131/159/5
f 132/160/5 127/153/5 126/151/5
f 133/163/5 127/153/5 132/160/5
f 134/164/5 128/165/5 127/166/5
f 134/167/5 127/153/5 133/163/5
f 135/168/5 129/157/5 128/154/5
f 135/169/5 128/165/5 134/164/5
f 135/168/5 130/170/5 129/157/5
f 136/171/5 130/170/5 135/168/5
f 137/172/5 118/132/5 130/158/5
f 137/173/5 130/170/5 136/171/5
f 138/174/5 109/115/5 118/132/5
f 138/174/5 118/132/5 137/172/5
f 139/175/5 97/97/5 99/99/5
f 139/175/5 131/159/5 97/97/5
f 140/176/5 133/163/5 132/160/5
f 140/177/5 131/159/5 139/175/5
f 140/176/5 132/160/5 131/178/5
f 141/179/5 133/163/5 140/176/5
f 142/180/5 134/164/5 133/181/5
f 142/182/5 133/163/5 141/179/5
f 142/180/5 136/183/5 135/169/5
f 142/180/5 135/169/5 134/164/5
f 143/184/5 137/173/5 136/171/5
f 143/185/5 136/183/5 142/180/5
f 143/184/5 138/186/5 137/173/5
f 144/187/5 138/186/5 143/184/5
f 145/188/5 109/115/5 138/174/5
f 145/189/5 138/186/5 144/187/5
f 146/190/5 110/116/5 109/115/5
f 146/190/5 109/115/5 145/188/5
f 147/191/5 139/175/5 99/99/5
f 148/192/5 141/179/5 140/176/5
f 148/193/5 139/175/5 147/191/5
f 148/192/5 140/176/5 139/194/5
f 149/195/5 142/180/5 141/196/5
f 149/197/5 141/179/5 148/192/5
f 149/195/5 144/198/5 143/185/5
f 149/195/5 143/185/5 142/180/5
f 150/199/5 145/189/5 144/187/5
f 150/200/5 144/198/5 149/195/5
f 150/199/5 146/201/5 145/189/5
f 151/202/5 110/116/5 146/190/5
f 151/203/5 146/201/5 150/199/5
f 152/204/5 110/116/5 151/202/5
f 153/205/6 154/206/6 155/207/6
f 155/207/6 154/206/6 156/208/6
f 157/209/6 158/210/6 159/211/6
f 159/211/6 158/210/6 160/212/6
f 161/213/6 162/214/6 163/215/6
f 163/215/6 162/214/6 164/216/6
f 165/217/6 166/218/6 167/219/6
f 167/219/6 166/218/6 168/220/6
f 169/221/6 170/222/6 171/223/6
f 171/223/6 170/222/6 172/224/6
f 172/224/6 170/222/6 173/225/6
f 173/225/6 170/222/6 174/226/6
f 174/226/6 170/222/6 175/227/6
f 175/227/6 170/222/6 176/228/6
f 177/229/6 171/223/6 178/230/6
f 171/223/6 172/224/6 178/230/6
f 172/231/6 173/232/6 178/233/6
f 178/233/6 173/232/6 179/234/6
f 173/225/6 174/226/6 180/235/6
f 179/234/6 173/232/6 180/236/6
f 180/235/6 174/226/6 181/237/6
f 181/237/6 174/226/6 182/238/6
f 174/239/6 175/240/6 183/241/6
f 182/238/6 174/226/6 183/242/6
f 183/241/6 175/240/6 184/243/6
f 176/228/6 185/244/6 186/245/6
f 184/243/6 175/240/6 186/246/6
f 175/227/6 176/228/6 186/245/6
f 178/230/6 179/247/6 187/248/6
f 179/234/6 180/236/6 187/249/6
f 180/236/6 181/250/6 187/249/6
f 187/249/6 181/250/6 188/251/6
f 181/237/6 182/238/6 189/252/6
f 188/251/6 181/250/6 189/253/6
f 189/252/6 182/238/6 190/254/6
f 190/254/6 182/238/6 191/255/6
f 183/241/6 184/243/6 192/256/6
f 191/255/6 182/238/6 192/257/6
f 182/258/6 183/241/6 192/256/6
f 192/256/6 184/243/6 193/259/6
f 184/260/6 186/245/6 194/261/6
f 193/259/6 184/243/6 194/262/6
f 189/253/6 190/263/6 195/264/6
f 187/248/6 188/265/6 195/266/6
f 188/251/6 189/253/6 195/264/6
f 195/264/6 190/263/6 196/267/6
f 190/254/6 191/255/6 197/268/6
f 196/267/6 190/263/6 197/269/6
f 192/256/6 193/259/6 198/270/6
f 197/268/6 191/255/6 198/271/6
f 191/272/6 192/256/6 198/270/6
f 198/270/6 193/259/6 199/273/6
f 193/274/6 194/261/6 200/275/6
f 199/273/6 193/259/6 200/276/6
f 195/266/6 196/277/6 201/278/6
f 187/248/6 195/266/6 201/278/6
f 198/270/6 199/273/6 202/279/6
f 201/278/6 196/277/6 202/280/6
f 196/267/6 197/269/6 202/279/6
f 197/269/6 198/270/6 202/279/6
f 202/279/6 199/273/6 203/281/6
f 203/281/6 199/273/6 204/282/6
f 199/283/6 200/275/6 205/284/6
f 204/282/6 199/273/6 205/285/6
f 200/275/6 194/261/6 206/286/6
f 205/284/6 200/275/6 206/286/6
f 187/248/6 201/278/6 207/287/6
f 178/230/6 187/248/6 207/287/6
f 201/288/6 202/279/6 208/289/6
f 207/287/6 201/278/6 208/290/6
f 202/279/6 203/281/6 208/289/6
f 208/289/6 203/281/6 209/291/6
f 203/292/6 204/293/6 210/294/6
f 209/291/6 203/281/6 210/295/6
f 204/282/6 205/285/6 211/296/6
f 210/294/6 204/293/6 211/297/6
f 205/285/6 206/298/6 211/296/6
f 211/296/6 206/298/6 212/299/6
f 206/286/6 194/261/6 213/300/6
f 212/299/6 206/298/6 213/301/6
f 194/261/6 186/245/6 214/302/6
f 213/300/6 194/261/6 214/302/6
f 177/229/6 178/230/6 215/303/6
f 178/230/6 207/287/6 215/303/6
f 208/289/6 209/291/6 216/304/6
f 215/303/6 207/287/6 216/305/6
f 207/306/6 208/289/6 216/304/6
f 216/304/6 209/291/6 217/307/6
f 209/308/6 210/294/6 218/309/6
f 217/307/6 209/291/6 218/310/6
f 211/297/6 212/311/6 218/309/6
f 210/294/6 211/297/6 218/309/6
f 212/299/6 213/301/6 219/312/6
f 218/309/6 212/311/6 219/313/6
f 213/301/6 214/314/6 219/312/6
f 219/312/6 214/314/6 220/315/6
f 214/302/6 186/245/6 221/316/6
f 220/315/6 214/314/6 221/317/6
f 186/245/6 185/244/6 222/318/6
f 221/316/6 186/245/6 222/318/6
f 177/229/6 215/303/6 223/319/6
f 223/319/6 215/303/6 224/320/6
f 216/304/6 217/307/6 225/321/6
f 224/320/6 215/303/6 225/322/6
f 215/323/6 216/304/6 225/321/6
f 217/324/6 218/309/6 226/325/6
f 225/321/6 217/307/6 226/326/6
f 219/313/6 220/327/6 226/325/6
f 218/309/6 219/313/6 226/325/6
f 220/315/6 221/317/6 227/328/6
f 226/325/6 220/327/6 227/329/6
f 221/317/6 222/330/6 227/328/6
f 222/318/6 185/244/6 228/331/6
f 227/328/6 222/330/6 228/332/6
f 228/331/6 185/244/6 229/333/6
f 229/333/6 185/244/6 230/334/6
f 224/320/6 225/322/6 231/335/6
f 228/331/6 229/333/6 231/335/6
f 227/329/6 228/331/6 231/335/6
f 226/325/6 227/329/6 231/335/6
f 225/322/6 226/325/6 231/335/6
f 231/335/6 229/333/6 232/336/6
